<?xml version="1.0" standalone="no"?>
<!DOCTYPE svg PUBLIC "-//W3C//DTD SVG 20010904//EN"
 "http://www.w3.org/TR/2001/REC-SVG-20010904/DTD/svg10.dtd">
<svg version="1.0" xmlns="http://www.w3.org/2000/svg"
 width="300.000000pt" height="300.000000pt" viewBox="0 0 300.000000 300.000000"
 preserveAspectRatio="xMidYMid meet">
<metadata>
Created by potrace 1.11, written by Peter Selinger 2001-2013
</metadata>
<g transform="translate(0.000000,300.000000) scale(0.100000,-0.100000)"
fill="#000000" stroke="none">
<path d="M2038 2590 c-323 -51 -598 -191 -873 -444 l-90 -82 -500 -17 c-275
-10 -516 -18 -535 -19 -96 -4 357 -16 653 -17 l338 -1 -54 -67 c-65 -82 -121
-166 -171 -255 -44 -80 -19 -73 -326 -89 -124 -6 -247 -15 -275 -19 -66 -10
400 -12 1055 -3 l515 6 119 283 118 284 37 6 c20 3 44 8 54 11 9 2 17 1 17 -2
0 -6 -165 -518 -178 -554 -4 -12 25 -13 191 -7 l196 8 -30 -56 -31 -56 -183 0
-184 0 -60 -187 c-33 -104 -109 -343 -170 -533 -60 -190 -113 -353 -116 -362
-10 -24 25 -24 146 1 310 65 565 210 837 475 166 162 264 293 344 464 78 165
101 266 102 447 1 205 -32 327 -129 475 -97 149 -244 253 -418 296 -74 18
-319 27 -399 14z m298 -141 c283 -39 468 -239 507 -550 35 -280 -89 -578 -358
-858 -253 -264 -500 -420 -767 -485 l-27 -6 14 42 c8 24 39 122 70 219 l55
176 143 -5 c78 -2 149 -8 157 -12 11 -7 -16 -39 -117 -139 -72 -72 -127 -131
-122 -131 46 0 205 117 330 243 122 123 205 240 285 402 125 256 160 478 109
682 -23 88 -78 192 -135 253 l-51 55 22 -45 c22 -44 59 -146 59 -161 0 -10
-82 -18 -221 -21 l-115 -3 27 85 c15 47 27 86 25 87 -1 1 -60 -11 -131 -27
-72 -16 -133 -30 -136 -30 -3 0 -18 -29 -34 -65 l-27 -65 -112 0 c-61 0 -136
-3 -166 -6 l-55 -7 35 37 c19 21 79 74 133 118 53 45 97 83 97 84 0 7 -56 -18
-100 -43 -53 -31 -103 -68 -185 -138 l-60 -52 -98 -7 -98 -6 33 28 c311 267
687 397 1014 351z m-1003 -521 c-79 -83 -141 -166 -181 -244 -19 -37 -25 -42
-68 -48 -61 -8 -144 -8 -144 1 0 17 136 208 204 286 l77 87 96 0 97 0 -81 -82z
m515 67 c3 -2 -135 -316 -141 -321 -6 -5 -448 -26 -453 -22 -9 10 98 180 171
272 l68 86 176 -6 c97 -4 177 -8 179 -9z m692 -99 c0 -246 -87 -505 -248 -737
l-47 -67 -190 -4 c-104 -2 -191 -3 -192 -2 -2 0 19 70 45 155 l48 154 175 5
174 5 77 140 78 140 -205 3 c-137 2 -205 6 -205 13 0 6 21 76 46 155 l46 144
199 0 199 0 0 -104z"/>
<path d="M968 1491 c-383 -9 -699 -19 -702 -22 -4 -3 89 -9 206 -13 117 -4
214 -9 216 -10 2 -2 -6 -35 -17 -73 -35 -120 -44 -188 -39 -300 6 -125 30
-203 93 -298 106 -160 330 -330 475 -360 l58 -12 21 46 c102 229 447 1051 443
1056 -3 3 -17 4 -31 4 -14 -1 -340 -9 -723 -18z m82 -60 c0 -5 -7 -43 -16 -85
-8 -41 -18 -122 -22 -178 l-7 -103 -117 -3 -118 -3 0 55 c0 63 21 174 51 264
l21 62 104 0 c57 0 104 -4 104 -9z m427 -10 l111 -6 -72 -170 -72 -170 -177
-3 -177 -2 6 57 c7 72 41 244 54 278 9 25 11 25 112 24 57 -1 153 -4 215 -8z
m-473 -402 c2 -2 11 -45 20 -96 18 -105 47 -188 87 -253 34 -54 35 -50 9 71
-10 52 -22 136 -26 186 l-7 93 159 -7 c87 -3 161 -7 163 -9 2 -2 -41 -107 -95
-233 l-98 -230 -33 14 c-67 28 -180 110 -248 179 -74 75 -129 165 -151 248
l-13 50 114 -4 c63 -2 117 -6 119 -9z"/>
</g>
</svg>
